<svg width="20" height="15" viewBox="0 0 20 15" fill="none" xmlns="http://www.w3.org/2000/svg">
    <path
        d="M9.36725 0.118054L0.262749 6.6318C0.181607 6.69002 0.115467 6.76669 0.0697829 6.85549C0.0240989 6.9443 0.000180846 7.04269 6.20838e-07 7.14255L6.20706e-07 7.14405C0.000210044 7.2443 0.0243407 7.34306 0.0703875 7.43211C0.116434 7.52116 0.183067 7.59793 0.26475 7.65605L9.36925 14.1278C9.46334 14.1948 9.57409 14.2345 9.68931 14.2426C9.80453 14.2506 9.91974 14.2268 10.0222 14.1736C10.1249 14.1207 10.211 14.0405 10.271 13.9419C10.331 13.8433 10.3627 13.73 10.3625 13.6146L10.3625 10.5688L18.5397 10.5691C18.6223 10.5691 18.7041 10.5528 18.7805 10.5212C18.8568 10.4896 18.9261 10.4433 18.9845 10.3849C19.0429 10.3265 19.0892 10.2571 19.1208 10.1808C19.1523 10.1045 19.1686 10.0227 19.1685 9.94005L19.1682 4.3048C19.1683 4.22219 19.152 4.14039 19.1204 4.06406C19.0888 3.98773 19.0425 3.91838 18.9841 3.85996C18.9257 3.80155 18.8563 3.75522 18.78 3.72362C18.7037 3.69202 18.6219 3.67577 18.5392 3.67581L10.3627 3.6758L10.3627 0.629054C10.3627 0.394054 10.2303 0.178304 10.0213 0.0698043C9.91839 0.0167542 9.80286 -0.00681666 9.68744 0.00169862C9.57203 0.0102139 9.46121 0.0504837 9.36725 0.118054Z"
        fill="currentColor" />
</svg>