<svg width="20" height="15" viewBox="0 0 20 15" fill="none" xmlns="http://www.w3.org/2000/svg">
    <path
        d="M9.80125 14.1261L18.9058 7.6123C18.9869 7.55409 19.053 7.47742 19.0987 7.38862C19.1444 7.29981 19.1683 7.20142 19.1685 7.10155V7.10005C19.1683 6.9998 19.1442 6.90105 19.0981 6.812C19.0521 6.72295 18.9854 6.64618 18.9037 6.58805L9.79925 0.116305C9.70516 0.0493216 9.59441 0.00960686 9.47919 0.00153465C9.36397 -0.00653757 9.24876 0.0173463 9.14625 0.0705554C9.0436 0.12341 8.95752 0.203562 8.89748 0.302189C8.83745 0.400816 8.8058 0.514095 8.806 0.629555V3.67531L0.62875 3.67506C0.546151 3.67502 0.464356 3.69127 0.388041 3.72287C0.311727 3.75447 0.24239 3.80081 0.183995 3.85923C0.1256 3.91765 0.0792934 3.987 0.0477221 4.06333C0.0161508 4.13965 -6.55188e-05 4.22146 1.98946e-07 4.30406L0.000250062 9.93931C0.000217208 10.0219 0.0164644 10.1037 0.048063 10.1801C0.0796616 10.2564 0.125992 10.3257 0.184407 10.3841C0.242821 10.4426 0.312175 10.4889 0.388504 10.5205C0.464832 10.5521 0.54664 10.5683 0.62925 10.5683H8.80575V13.6151C8.80575 13.8501 8.93825 14.0658 9.14725 14.1743C9.25011 14.2274 9.36564 14.2509 9.48106 14.2424C9.59647 14.2339 9.70729 14.1936 9.80125 14.1261Z"
        fill="currentColor" />
</svg>